<?xml version="1.0" encoding="UTF-8"?>
<!DOCTYPE svg PUBLIC "-//W3C//DTD SVG 1.1//EN" "http://www.w3.org/Graphics/SVG/1.1/DTD/svg11.dtd">
<!-- Creator: CorelDRAW 2021 (64-Bit) -->
<svg xmlns="http://www.w3.org/2000/svg" xml:space="preserve" width="17.288mm" height="10.4033mm" version="1.1" style="shape-rendering:geometricPrecision; text-rendering:geometricPrecision; image-rendering:optimizeQuality; fill-rule:evenodd; clip-rule:evenodd"
viewBox="0 0 46.04 27.71"
 xmlns:xlink="http://www.w3.org/1999/xlink"
 xmlns:xodm="http://www.corel.com/coreldraw/odm/2003">
 <defs>
  <style type="text/css">
   <![CDATA[
    .fil0 {fill:#183153}
   ]]>
  </style>
 </defs>
 <g id="Layer_x0020_1">
  <metadata id="CorelCorpID_0Corel-Layer"/>
  <g id="_2885773754448">
   <path class="fil0" d="M11 14.91c8.61,-0.32 22.09,-0.04 31.6,-0.03 1.24,0 3.33,0.42 3.43,-1.05 0.11,-1.6 -2.04,-1.2 -3.43,-1.2l-31.66 -0.05c1.54,-1.87 5.7,-5.76 7.83,-7.91 1.65,-1.67 0.08,-2.88 -1.08,-2l-5.41 5.44c-0.72,0.73 -5.2,4.91 -5.3,5.56 -0.14,0.94 4.27,4.85 5.09,5.67 1.84,1.85 3.54,3.62 5.4,5.43 1.38,1.35 2.67,-0.22 1.55,-1.54 -0.79,-0.93 -1.79,-1.84 -2.67,-2.75 -1.38,-1.44 -4.64,-4.07 -5.35,-5.57z"/>
   <path class="fil0" d="M-0 1.67l0 24.35c0,2.23 2.25,2.26 2.25,0l0 -24.35c0,-2.27 -2.25,-2.19 -2.25,0z"/>
  </g>
 </g>
</svg>
